# xmcd
#
# Track frame offsets:
#	150
#	6240
#	29077
#	47352
#	72550
#	90430
#	110862
#	130002
#	153090
#	169952
#	173900
#	195505
#	211385
#
# Disc length: 2935 seconds
#
# Revision: 1
# Processed by: cddbd v1.5.1PL0 Copyright (c) Steve Scherf et al.
# Submitted via: CDex 1.50Beta5
#
DISCID=af0b750d
DTITLE=沢田聖子 - Acoustic Love Ballads
DYEAR=1997
DGENRE=
TTITLE0=misty morning
TTITLE1=どんな時でもあなたを想ってる
TTITLE2=Pure Love
TTITLE3=Respect
TTITLE4=愛の唄
TTITLE5=きっと、いつか
TTITLE6=シオン
TTITLE7=君と歩いた青春
TTITLE8=晩夏
TTITLE9=reflection on a rainbow
TTITLE10=約束
TTITLE11=まっすぐに…愛
TTITLE12=twilight dream
EXTD=
EXTT0=
EXTT1=
EXTT2=
EXTT3=
EXTT4=
EXTT5=
EXTT6=
EXTT7=
EXTT8=
EXTT9=
EXTT10=
EXTT11=
EXTT12=
PLAYORDER=
